<?xml version="1.0" encoding="UTF-8" standalone="no"?>
<!-- Created with Inkscape (http://www.inkscape.org/) -->

<svg
   version="1.1"
   id="svg2"
   xml:space="preserve"
   width="112.70667"
   height="159.224"
   viewBox="0 0 112.70667 159.224"
   sodipodi:docname="charged_current.pdf"
   xmlns:inkscape="http://www.inkscape.org/namespaces/inkscape"
   xmlns:sodipodi="http://sodipodi.sourceforge.net/DTD/sodipodi-0.dtd"
   xmlns="http://www.w3.org/2000/svg"
   xmlns:svg="http://www.w3.org/2000/svg"><defs
     id="defs6" /><sodipodi:namedview
     id="namedview4"
     pagecolor="#ffffff"
     bordercolor="#999999"
     borderopacity="1"
     inkscape:pageshadow="0"
     inkscape:pageopacity="0"
     inkscape:pagecheckerboard="0" /><g
     id="g8"
     inkscape:groupmode="layer"
     inkscape:label="charged_current"
     transform="matrix(1.3333333,0,0,-1.3333333,0,159.224)"><g
       id="g10"
       transform="translate(7.8,112.396)"><g
         id="g12"><g
           id="g14"><g
             id="g16"><g
               id="g18"><g
                 id="g20" /></g><g
               id="g22"><g
                 id="g24" /></g><g
               id="g26"><g
                 id="g28" /></g><g
               id="g30"><g
                 id="g32" /></g><g
               id="g34"><g
                 id="g36" /></g><g
               id="g38"><g
                 id="g40" /></g><g
               id="g42"><g
                 id="g44"><g
                   id="g46"><path
                     d="M 6.99736,-6.41176 34.21202,-31.34888"
                     style="fill:none;stroke:#000000;stroke-width:0.3985;stroke-linecap:butt;stroke-linejoin:miter;stroke-miterlimit:10;stroke-dasharray:none;stroke-opacity:1"
                     id="path48" /><g
                     id="g50"><g
                       id="g52"><g
                         id="g54"><path
                           d="m 23.31984,-21.36873 -3.0175,6.47083 -3.69168,-4.0287 z"
                           style="fill:#000000;fill-opacity:1;fill-rule:nonzero;stroke:none"
                           id="path56" /><g
                           id="g58"
                           transform="matrix(0.73723,-0.67555,0.67555,0.73723,19.558,-17.922)"><g
                             id="g60" /><g
                             id="g62"
                             transform="translate(-19.558,17.922)" /></g></g></g></g></g></g><g
                 id="g64"><g
                   id="g66"><path
                     d="M 34.21202,-31.34888 63.78471,-4.4071"
                     style="fill:none;stroke:#000000;stroke-width:0.3985;stroke-linecap:butt;stroke-linejoin:miter;stroke-miterlimit:10;stroke-dasharray:none;stroke-opacity:1"
                     id="path68" /><g
                     id="g70"><g
                       id="g72"><g
                         id="g74"><path
                           d="m 51.70355,-15.41357 -6.71621,-2.42269 3.67999,-4.03938 z"
                           style="fill:#000000;fill-opacity:1;fill-rule:nonzero;stroke:none"
                           id="path76" /><g
                           id="g78"
                           transform="matrix(0.73918,0.67342,-0.67342,0.73918,47.932,-18.85)"><g
                             id="g80" /><g
                             id="g82"
                             transform="translate(-47.932,18.85)" /></g></g></g></g></g></g><g
                 id="g84"><g
                   id="g86"><path
                     d="m 34.21202,-31.34888 v -0.51352 l 0.62267,-0.51352 0.45582,-0.51351 0.16686,-0.51354 -0.16686,-0.51352 -0.45582,-0.51352 -0.62267,-0.51352 -0.62268,-0.51353 -0.45583,-0.51352 -0.16684,-0.51352 0.16684,-0.51352 0.45583,-0.51353 0.62268,-0.51352 0.62267,-0.51353 0.45582,-0.51351 0.16686,-0.51354 -0.16686,-0.51352 -0.45582,-0.51352 -0.62267,-0.51351 -0.62268,-0.51352 -0.45583,-0.51354 -0.16684,-0.51352 0.16684,-0.51352 0.45583,-0.51352 0.62268,-0.51353 0.62267,-0.51352 0.45582,-0.51352 0.16686,-0.51352 -0.16686,-0.51353 -0.45582,-0.51352 -0.62267,-0.51352 -0.62268,-0.51352 -0.45583,-0.51352 -0.16684,-0.51353 0.16684,-0.51352 0.45583,-0.51353 0.62268,-0.51351 0.62267,-0.51354 0.45582,-0.51352 0.16686,-0.51352 -0.16686,-0.51351 -0.45582,-0.51354 -0.62267,-0.51352 -0.62268,-0.51352 -0.45583,-0.51352 -0.16684,-0.51352 0.16684,-0.51353 0.45583,-0.51352 0.62268,-0.51352 0.62267,-0.51352 0.45582,-0.51353 0.16686,-0.51352 -0.16686,-0.51352 -0.45582,-0.51352 -0.62267,-0.51354 -0.62268,-0.51352 -0.45583,-0.51351 -0.16684,-0.51353 0.16684,-0.51351 0.45583,-0.51354 0.62268,-0.51352 0.62267,-0.51352 0.45582,-0.51351 0.16686,-0.51354 -0.16686,-0.51352 -0.45582,-0.51352 -0.62267,-0.51352 -0.62268,-0.51353 -0.45583,-0.51352 -0.16684,-0.51352 0.16684,-0.51352 0.45583,-0.51354 0.62268,-0.51351 0.62267,-0.51352 0.45582,-0.51352 0.16686,-0.51352 -0.16686,-0.51354 -0.45582,-0.51352 -0.62267,-0.51352 -0.62268,-0.51352 -0.45583,-0.51353 -0.16684,-0.51352 1.24535,-1.02829"
                     style="fill:none;stroke:#000000;stroke-width:0.3985;stroke-linecap:butt;stroke-linejoin:miter;stroke-miterlimit:10;stroke-dasharray:none;stroke-opacity:1"
                     id="path88" /></g><g
                   id="g90"><g
                     id="g92"
                     transform="translate(37.732,-56.883)"><g
                       id="g94"><g
                         id="g96"
                         transform="translate(-45.532,-55.513)"><text
                           transform="matrix(1,0,0,-1,45.532,55.513)"
                           style="font-variant:normal;font-weight:normal;font-size:9.96264px;font-family:CMMI10;-inkscape-font-specification:CMMI10;writing-mode:lr-tb;fill:#000000;fill-opacity:1;fill-rule:nonzero;stroke:none"
                           id="text100"><tspan
                             x="0"
                             y="0"
                             id="tspan98">W</tspan></text><text
                           transform="matrix(1,0,0,-1,56.324,59.128)"
                           style="font-variant:normal;font-weight:normal;font-size:6.97385px;font-family:CMSY7;-inkscape-font-specification:CMSY7;writing-mode:lr-tb;fill:#000000;fill-opacity:1;fill-rule:nonzero;stroke:none"
                           id="text104"><tspan
                             x="0"
                             y="0"
                             id="tspan102">±</tspan></text><g
                           id="g106"
                           transform="translate(45.532,55.513)" /></g></g><g
                       id="g108"
                       transform="translate(-37.732,56.883)" /></g></g></g><g
                 id="g110"><path
                   d="M 61.19318,-98.74883 34.21202,-74.48604"
                   style="fill:none;stroke:#000000;stroke-width:0.3985;stroke-linecap:butt;stroke-linejoin:miter;stroke-miterlimit:10;stroke-dasharray:none;stroke-opacity:1"
                   id="path112" /></g><g
                 id="g114"><path
                   d="M 34.21202,-74.48604 7.72757,-98.41916"
                   style="fill:none;stroke:#000000;stroke-width:0.3985;stroke-linecap:butt;stroke-linejoin:miter;stroke-miterlimit:10;stroke-dasharray:none;stroke-opacity:1"
                   id="path116" /></g><g
                 id="g118"><g
                   id="g120"><g
                     id="g122"><g
                       id="g124"
                       transform="translate(-3.989,-1.398)"><g
                         id="g126"><g
                           id="g128"
                           transform="translate(-3.811,-110.998)"><text
                             transform="matrix(1,0,0,-1,3.811,110.998)"
                             style="font-variant:normal;font-weight:normal;font-size:9.96264px;font-family:CMMI10;-inkscape-font-specification:CMMI10;writing-mode:lr-tb;fill:#000000;fill-opacity:1;fill-rule:nonzero;stroke:none"
                             id="text132"><tspan
                               x="0"
                               y="0"
                               id="tspan130">ν</tspan></text><text
                             transform="matrix(1,0,0,-1,8.732,109.504)"
                             style="font-variant:normal;font-weight:normal;font-size:6.97385px;font-family:CMMI7;-inkscape-font-specification:CMMI7;writing-mode:lr-tb;fill:#000000;fill-opacity:1;fill-rule:nonzero;stroke:none"
                             id="text136"><tspan
                               x="0"
                               y="0"
                               id="tspan134">l</tspan></text><g
                             id="g138"
                             transform="translate(3.811,110.998)" /></g></g><g
                         id="g140"
                         transform="translate(3.989,1.398)" /></g></g></g></g><g
                 id="g142"
                 transform="translate(34.212,-31.349)"><g
                   id="g144"><g
                     id="g146" /></g><g
                   id="g148"
                   transform="translate(-34.212,31.349)" /></g><g
                 id="g150"
                 transform="translate(68.888,0.243)"><g
                   id="g152"><g
                     id="g154"><g
                       id="g156"
                       transform="translate(-1.584,-3.46)"><g
                         id="g158"><g
                           id="g160"
                           transform="translate(-75.104,-109.179)"><text
                             transform="matrix(1,0,0,-1,75.104,109.179)"
                             style="font-variant:normal;font-weight:normal;font-size:9.96264px;font-family:CMMI10;-inkscape-font-specification:CMMI10;writing-mode:lr-tb;fill:#000000;fill-opacity:1;fill-rule:nonzero;stroke:none"
                             id="text164"><tspan
                               x="0"
                               y="0"
                               id="tspan162">l</tspan></text><g
                             id="g166"
                             transform="translate(75.104,109.179)" /></g></g><g
                         id="g168"
                         transform="translate(1.584,3.46)" /></g></g></g><g
                   id="g170"
                   transform="translate(-68.888,-0.243)" /></g><g
                 id="g172"
                 transform="translate(34.212,-74.485)"><g
                   id="g174"><g
                     id="g176" /></g><g
                   id="g178"
                   transform="translate(-34.212,74.485)" /></g><g
                 id="g180"
                 transform="translate(68.892,-105.672)"><g
                   id="g182"><g
                     id="g184"><g
                       id="g186"
                       transform="translate(-4.518,-3.403)"><g
                         id="g188"><g
                           id="g190"
                           transform="translate(-72.174,-3.321)"><text
                             transform="matrix(1,0,0,-1,72.174,3.321)"
                             style="font-variant:normal;font-weight:normal;font-size:9.96264px;font-family:CMMI10;-inkscape-font-specification:CMMI10;writing-mode:lr-tb;fill:#000000;fill-opacity:1;fill-rule:nonzero;stroke:none"
                             id="text194"><tspan
                               x="0"
                               y="0"
                               id="tspan192">X</tspan></text><g
                             id="g196"
                             transform="translate(72.174,3.321)" /></g></g><g
                         id="g198"
                         transform="translate(4.518,3.403)" /></g></g></g><g
                   id="g200"
                   transform="translate(-68.892,105.672)" /></g><g
                 id="g202"
                 transform="translate(0.066,-105.342)"><g
                   id="g204"><g
                     id="g206"><g
                       id="g208"
                       transform="translate(-4.545,-3.404)"><g
                         id="g210"><g
                           id="g212"
                           transform="translate(-3.321,-3.65)"><text
                             transform="matrix(1,0,0,-1,3.321,3.65)"
                             style="font-variant:normal;font-weight:normal;font-size:9.96264px;font-family:CMMI10;-inkscape-font-specification:CMMI10;writing-mode:lr-tb;fill:#000000;fill-opacity:1;fill-rule:nonzero;stroke:none"
                             id="text216"><tspan
                               x="0"
                               y="0"
                               id="tspan214">N</tspan></text><g
                             id="g218"
                             transform="translate(3.321,3.65)" /></g></g><g
                         id="g220"
                         transform="translate(4.545,3.404)" /></g></g></g><g
                   id="g222"
                   transform="translate(-0.066,105.342)" /></g></g></g></g></g></g></g></svg>
