<?xml version="1.0" encoding="UTF-8" standalone="no"?>
<!-- Created with Inkscape (http://www.inkscape.org/) -->

<svg
   version="1.1"
   id="svg2"
   xml:space="preserve"
   width="120.196"
   height="144.73466"
   viewBox="0 0 120.196 144.73466"
   sodipodi:docname="glashow_resonance.pdf"
   xmlns:inkscape="http://www.inkscape.org/namespaces/inkscape"
   xmlns:sodipodi="http://sodipodi.sourceforge.net/DTD/sodipodi-0.dtd"
   xmlns="http://www.w3.org/2000/svg"
   xmlns:svg="http://www.w3.org/2000/svg"><defs
     id="defs6" /><sodipodi:namedview
     id="namedview4"
     pagecolor="#ffffff"
     bordercolor="#999999"
     borderopacity="1"
     inkscape:pageshadow="0"
     inkscape:pageopacity="0"
     inkscape:pagecheckerboard="0" /><g
     id="g8"
     inkscape:groupmode="layer"
     inkscape:label="glashow_resonance"
     transform="matrix(1.3333333,0,0,-1.3333333,0,144.73467)"><g
       id="g10"
       transform="translate(8.612,101.342)"><g
         id="g12"><g
           id="g14"><g
             id="g16"><g
               id="g18"><g
                 id="g20" /></g><g
               id="g22"><g
                 id="g24" /></g><g
               id="g26"><g
                 id="g28" /></g><g
               id="g30"><g
                 id="g32" /></g><g
               id="g34"><g
                 id="g36"><g
                   id="g38"><path
                     d="M 4.30853,-7.40799 27.17915,-46.73117"
                     style="fill:none;stroke:#000000;stroke-width:0.3985;stroke-linecap:butt;stroke-linejoin:miter;stroke-miterlimit:10;stroke-dasharray:none;stroke-opacity:1"
                     id="path40" /><g
                     id="g42"><g
                       id="g44"><g
                         id="g46"><path
                           d="m 17.59172,-30.24709 -0.95459,7.07586 -4.72362,-2.74724 z"
                           style="fill:#000000;fill-opacity:1;fill-rule:nonzero;stroke:none"
                           id="path48" /><g
                           id="g50"
                           transform="matrix(0.50273,-0.8644,0.8644,0.50273,15.026,-25.836)"><g
                             id="g52" /><g
                             id="g54"
                             transform="translate(-15.026,25.836)" /></g></g></g></g></g></g><g
                 id="g56"><g
                   id="g58"><path
                     d="M 27.17915,-46.73117 4.62802,-86.57062"
                     style="fill:none;stroke:#000000;stroke-width:0.3985;stroke-linecap:butt;stroke-linejoin:miter;stroke-miterlimit:10;stroke-dasharray:none;stroke-opacity:1"
                     id="path60" /><g
                     id="g62"><g
                       id="g64"><g
                         id="g66"><path
                           d="m 14.09079,-69.85402 5.62706,4.39472 -4.75539,2.69172 z"
                           style="fill:#000000;fill-opacity:1;fill-rule:nonzero;stroke:none"
                           id="path68" /><g
                           id="g70"
                           transform="matrix(-0.49257,-0.87021,0.87021,-0.49257,16.604,-65.413)"><g
                             id="g72" /><g
                             id="g74"
                             transform="translate(-16.604,65.413)" /></g></g></g></g></g></g><g
                 id="g76"><g
                   id="g78"><path
                     d="m 27.17915,-46.73117 h 0.50121 l 0.5012,0.62267 0.50123,0.45582 0.5012,0.16686 0.50121,-0.16686 0.5012,-0.45582 0.50122,-0.62267 0.50121,-0.62268 0.5012,-0.45583 0.50121,-0.16684 0.50122,0.16684 0.5012,0.45583 0.50121,0.62268 0.50121,0.62267 0.50122,0.45582 0.5012,0.16686 0.5012,-0.16686 0.50121,-0.45582 0.50122,-0.62267 0.50121,-0.62268 0.5012,-0.45583 0.50121,-0.16684 0.50122,0.16684 0.50121,0.45583 0.5012,0.62268 0.50121,0.62267 0.50121,0.45582 0.50121,0.16686 0.50121,-0.16686 0.5012,-0.45582 0.50122,-0.62267 0.50121,-0.62268 0.50121,-0.45583 0.5012,-0.16684 0.50122,0.16684 0.50121,0.45583 0.5012,0.62268 0.50121,0.62267 0.50122,0.45582 0.5012,0.16686 0.50121,-0.16686 0.5012,-0.45582 0.50123,-0.62267 0.5012,-0.62268 0.50121,-0.45583 0.5012,-0.16684 0.50123,0.16684 0.5012,0.45583 0.5012,0.62268 0.50121,0.62267 0.50122,0.45582 0.5012,0.16686 0.50121,-0.16686 0.50121,-0.45582 0.50122,-0.62267 0.5012,-0.62268 0.50121,-0.45583 0.5012,-0.16684 0.50122,0.16684 0.50121,0.45583 0.5012,0.62268 0.50121,0.62267 0.50122,0.45582 0.50121,0.16686 0.5012,-0.16686 0.50121,-0.45582 0.50122,-0.62267 0.5012,-0.62268 0.50121,-0.45583 0.50121,-0.16684 0.50121,0.16684 0.50121,0.45583 0.50121,0.62268 0.5012,0.62267 0.50122,0.45582 0.50121,0.16686 0.5012,-0.16686 0.50121,-0.45582 0.50122,-0.62267 0.50121,-0.62268 0.5012,-0.45583 0.5012,-0.16684 0.50123,0.16684 0.5012,0.45583 0.50121,0.62268 0.5012,0.62267 0.50122,0.45582 0.50121,0.16686 0.5012,-0.16686 0.50121,-0.45582 0.50122,-0.62267 0.5012,-0.62268 0.50121,-0.45583 0.50121,-0.16684 0.50122,0.16684 0.5012,0.45583 0.50121,0.62268 0.5012,0.62267 0.50122,0.45582 0.50121,0.16686 0.5012,-0.16686 0.50121,-0.45582 0.50122,-0.62267 0.50121,-0.62268 0.5012,-0.45583 0.50121,-0.16684 1.02936,1.24535"
                     style="fill:none;stroke:#000000;stroke-width:0.3985;stroke-linecap:butt;stroke-linejoin:miter;stroke-miterlimit:10;stroke-dasharray:none;stroke-opacity:1"
                     id="path80" /></g><g
                   id="g82"><g
                     id="g84"
                     transform="translate(45.498,-43.21)"><g
                       id="g86"><g
                         id="g88"
                         transform="translate(-54.11,-58.132)"><text
                           transform="matrix(1,0,0,-1,54.11,58.132)"
                           style="font-variant:normal;font-weight:normal;font-size:9.96264px;font-family:CMMI10;-inkscape-font-specification:CMMI10;writing-mode:lr-tb;fill:#000000;fill-opacity:1;fill-rule:nonzero;stroke:none"
                           id="text92"><tspan
                             x="0"
                             y="0"
                             id="tspan90">W</tspan></text><text
                           transform="matrix(1,0,0,-1,64.903,61.747)"
                           style="font-variant:normal;font-weight:normal;font-size:6.97385px;font-family:CMSY7;-inkscape-font-specification:CMSY7;writing-mode:lr-tb;fill:#000000;fill-opacity:1;fill-rule:nonzero;stroke:none"
                           id="text96"><tspan
                             x="0"
                             y="0"
                             id="tspan94">−</tspan></text><g
                           id="g98"
                           transform="translate(54.11,58.132)" /></g></g><g
                       id="g100"
                       transform="translate(-45.498,43.21)" /></g></g></g><g
                 id="g102"><g
                   id="g104"><g
                     id="g106"><g
                       id="g108"
                       transform="translate(-4.917,-2.393)"><g
                         id="g110"><g
                           id="g112"
                           transform="translate(0,5.684)"><path
                             d="M 0,0 H 5.556"
                             style="fill:none;stroke:#000000;stroke-width:0.398;stroke-linecap:butt;stroke-linejoin:miter;stroke-miterlimit:10;stroke-dasharray:none;stroke-opacity:1"
                             id="path114" /></g><g
                           id="g116"
                           transform="translate(-3.695,-98.949)"><text
                             transform="matrix(1,0,0,-1,3.695,98.949)"
                             style="font-variant:normal;font-weight:normal;font-size:9.96264px;font-family:CMMI10;-inkscape-font-specification:CMMI10;writing-mode:lr-tb;fill:#000000;fill-opacity:1;fill-rule:nonzero;stroke:none"
                             id="text120"><tspan
                               x="0"
                               y="0"
                               id="tspan118">ν</tspan></text><text
                             transform="matrix(1,0,0,-1,9.251,97.454)"
                             style="font-variant:normal;font-weight:normal;font-size:6.97385px;font-family:CMMI7;-inkscape-font-specification:CMMI7;writing-mode:lr-tb;fill:#000000;fill-opacity:1;fill-rule:nonzero;stroke:none"
                             id="text124"><tspan
                               x="0"
                               y="0"
                               id="tspan122">e</tspan></text><g
                             id="g126"
                             transform="translate(3.695,98.949)" /></g></g><g
                         id="g128"
                         transform="translate(4.917,2.393)" /></g></g></g></g><g
                 id="g130"
                 transform="translate(27.179,-46.73)"><g
                   id="g132"><g
                     id="g134" /></g><g
                   id="g136"
                   transform="translate(-27.179,46.73)" /></g><g
                 id="g138"
                 transform="translate(0.39,-94.055)"><g
                   id="g140"><g
                     id="g142"><g
                       id="g144"
                       transform="translate(-5.681,-3.966)"><g
                         id="g146"><g
                           id="g148"
                           transform="translate(-3.321,-3.321)"><text
                             transform="matrix(1,0,0,-1,3.321,3.321)"
                             style="font-variant:normal;font-weight:normal;font-size:9.96264px;font-family:CMMI10;-inkscape-font-specification:CMMI10;writing-mode:lr-tb;fill:#000000;fill-opacity:1;fill-rule:nonzero;stroke:none"
                             id="text152"><tspan
                               x="0"
                               y="0"
                               id="tspan150">e</tspan></text><text
                             transform="matrix(1,0,0,-1,7.959,6.936)"
                             style="font-variant:normal;font-weight:normal;font-size:6.97385px;font-family:CMSY7;-inkscape-font-specification:CMSY7;writing-mode:lr-tb;fill:#000000;fill-opacity:1;fill-rule:nonzero;stroke:none"
                             id="text156"><tspan
                               x="0"
                               y="0"
                               id="tspan154">−</tspan></text><g
                             id="g158"
                             transform="translate(3.321,3.321)" /></g></g><g
                         id="g160"
                         transform="translate(5.681,3.966)" /></g></g></g><g
                   id="g162"
                   transform="translate(-0.39,94.055)" /></g><g
                 id="g164"
                 transform="translate(81.336,-46.73)"><g
                   id="g166"><g
                     id="g168" /></g><g
                   id="g170"
                   transform="translate(-81.336,46.73)" /></g></g></g></g></g></g></g></svg>
